<svg>
<symbol id="wallet" width="30" height="30" viewBox="0 0 30 30" fill="none" xmlns="http://www.w3.org/2000/svg">
<g clip-path="url(#clip0_801_1577)">
<path d="M22 9H25.8C26.1183 9 26.4235 9.12877 26.6485 9.35798C26.8736 9.58719 27 9.89807 27 10.2222V24.7778C27 25.1019 26.8736 25.4128 26.6485 25.642C26.4235 25.8712 26.1183 26 25.8 26H4.2C3.88174 26 3.57652 25.8712 3.35147 25.642C3.12643 25.4128 3 25.1019 3 24.7778V5.22222C3 4.89807 3.12643 4.58719 3.35147 4.35798C3.57652 4.12877 3.88174 4 4.2 4H22V9ZM5 11V24H25V11H5ZM5 6V9H20V6H5ZM18 16H22V18H18V16Z" fill="white"/>
</g>
<defs>
<clipPath id="clip0_801_1577">
<rect width="30" height="30" fill="white"/>
</clipPath>
</defs>
</symbol>

<symbol id="open-menu" width="24" height="24" viewBox="0 0 24 24" fill="none" xmlns="http://www.w3.org/2000/svg">
<path d="M3 12H21" stroke="#fff" stroke-width="2" stroke-linecap="round" stroke-linejoin="round"/>
<path d="M3 6H21" stroke="#fff" stroke-width="2" stroke-linecap="round" stroke-linejoin="round"/>
<path d="M3 18H21" stroke="#fff" stroke-width="2" stroke-linecap="round" stroke-linejoin="round"/>
</symbol>


<symbol id="close-menu" width="18" height="18" viewBox="0 0 18 18" fill="none" xmlns="http://www.w3.org/2000/svg">
<path d="M16 2L2 16" stroke="white" stroke-width="3" stroke-linecap="round"/>
<path d="M2 2L16 16" stroke="white" stroke-width="3" stroke-linecap="round"/>
</symbol>

<symbol id="arrow-down" width="40" height="40" viewBox="0 0 40 40" fill="none" xmlns="http://www.w3.org/2000/svg">
<circle cx="20" cy="20" r="20" transform="rotate(90 20 20)" fill="white"/>
<path d="M20 24L25 19.5172M20 24L15 19.5172M20 24L20 14" stroke="#363A45" stroke-width="1.5"/>
</symbol>

<symbol id="logo" width="80" height="39" viewBox="0 0 120 61" fill="none" xmlns="http://www.w3.org/2000/svg">
<path d="M24.8343 0.750564C19.8256 -0.669909 14.5616 -0.0611373 10.0153 2.4662C5.4653 4.99353 2.17672 9.13688 0.752526 14.1325C-0.671667 19.1281 -0.0612892 24.3784 2.47266 28.9128C5.00662 33.4509 9.16082 36.7309 14.1695 38.1514C15.9452 38.6569 17.7356 38.8967 19.4964 38.8967C27.986 38.8967 35.821 33.3107 38.255 24.7731C41.1922 14.4609 35.1736 3.68375 24.8343 0.750564ZM35.0922 23.8766C32.647 32.4511 23.6617 37.443 15.0647 35.0042C10.8994 33.8236 7.44439 31.0933 5.33954 27.3226C3.231 23.5482 2.72419 19.1835 3.91164 15.0291C5.09538 10.8747 7.83279 7.42863 11.6134 5.32928C14.0585 3.97153 16.7516 3.27789 19.4779 3.27789C20.9687 3.27789 22.4668 3.48451 23.9391 3.90143C32.5361 6.34021 37.5374 15.3021 35.0922 23.8766ZM101.304 0.163928H97.6605L99.9022 4.81643L83.4408 38.9816L83.4741 38.9963H87.0771L101.722 8.59452L116.367 38.9963H119.97L120 38.9816L101.304 0.163928ZM63.5724 22.659L52.6745 0.167616H49.0308L61.7487 26.4408L55.7042 38.9852L55.7375 39H59.3405L78.0473 0.163928H74.4036L63.5724 22.659Z" fill="white"/>
<path d="M8.94936 53.478V54.339C8.5947 54.1337 8.2027 54.031 7.77336 54.031C7.34403 54.031 6.9847 54.178 6.69536 54.472C6.4107 54.7613 6.26836 55.151 6.26836 55.641C6.26836 56.131 6.4107 56.5207 6.69536 56.81C6.9847 57.0993 7.36036 57.244 7.82236 57.244C8.2657 57.244 8.6437 57.1273 8.95636 56.894V57.776C8.66703 57.9627 8.26103 58.056 7.73836 58.056C7.03836 58.056 6.4597 57.8367 6.00236 57.398C5.5497 56.9547 5.32336 56.369 5.32336 55.641C5.32336 54.927 5.54736 54.346 5.99536 53.898C6.44803 53.4453 7.02903 53.219 7.73836 53.219C8.25636 53.219 8.66003 53.3053 8.94936 53.478ZM12.389 55.627C12.389 54.8943 12.5897 54.3063 12.991 53.863C13.397 53.4197 13.9383 53.198 14.615 53.198C15.301 53.198 15.8447 53.4197 16.246 53.863C16.6473 54.3017 16.848 54.8897 16.848 55.627C16.848 56.355 16.645 56.9407 16.239 57.384C15.8377 57.8273 15.2987 58.049 14.622 58.049C13.9453 58.049 13.404 57.8273 12.998 57.384C12.592 56.9407 12.389 56.355 12.389 55.627ZM13.334 55.627C13.334 56.1217 13.4507 56.5137 13.684 56.803C13.9173 57.0923 14.23 57.237 14.622 57.237C15.0187 57.237 15.3313 57.0947 15.56 56.81C15.7887 56.5207 15.903 56.1263 15.903 55.627C15.903 55.1277 15.7887 54.7333 15.56 54.444C15.3313 54.1547 15.0163 54.01 14.615 54.01C14.2183 54.01 13.9057 54.1547 13.677 54.444C13.4483 54.7333 13.334 55.1277 13.334 55.627ZM20.4366 58V53.282H21.4376L22.5716 55.249C22.7582 55.571 22.9239 55.872 23.0686 56.152C23.2179 56.4273 23.3182 56.6233 23.3696 56.74L23.4466 56.915C23.4092 56.5277 23.3906 55.9723 23.3906 55.249V53.282H24.2796V58H23.2716L22.1236 56.04C21.9416 55.732 21.7759 55.438 21.6266 55.158C21.4819 54.8733 21.3816 54.668 21.3256 54.542L21.2416 54.346C21.2929 54.7893 21.3186 55.3517 21.3186 56.033V58H20.4366ZM28.0559 58V53.282H29.0569L30.1909 55.249C30.3776 55.571 30.5432 55.872 30.6879 56.152C30.8372 56.4273 30.9376 56.6233 30.9889 56.74L31.0659 56.915C31.0286 56.5277 31.0099 55.9723 31.0099 55.249V53.282H31.8989V58H30.8909L29.7429 56.04C29.5609 55.732 29.3952 55.438 29.2459 55.158C29.1012 54.8733 29.0009 54.668 28.9449 54.542L28.8609 54.346C28.9122 54.7893 28.9379 55.3517 28.9379 56.033V58H28.0559ZM36.5643 57.279H38.4893V58H35.6753V53.282H38.4613V54.003H36.5643V55.284H38.2513V55.998H36.5643V57.279ZM45.6105 53.478V54.339C45.2558 54.1337 44.8638 54.031 44.4345 54.031C44.0052 54.031 43.6458 54.178 43.3565 54.472C43.0718 54.7613 42.9295 55.151 42.9295 55.641C42.9295 56.131 43.0718 56.5207 43.3565 56.81C43.6458 57.0993 44.0215 57.244 44.4835 57.244C44.9268 57.244 45.3048 57.1273 45.6175 56.894V57.776C45.3282 57.9627 44.9222 58.056 44.3995 58.056C43.6995 58.056 43.1208 57.8367 42.6635 57.398C42.2108 56.9547 41.9845 56.369 41.9845 55.641C41.9845 54.927 42.2085 54.346 42.6565 53.898C43.1092 53.4453 43.6902 53.219 44.3995 53.219C44.9175 53.219 45.3212 53.3053 45.6105 53.478ZM52.2141 53.282V54.01H51.0171V58H50.1281V54.01H48.9311V53.282H52.2141ZM63.0332 53.282H63.9222V58H63.0332V56.019H61.0942V58H60.2122V53.282H61.0942V55.256H63.0332V53.282ZM68.5906 57.279H70.5156V58H67.7016V53.282H70.4876V54.003H68.5906V55.284H70.2776V55.998H68.5906V57.279ZM75.3969 56.208H76.7269L76.6639 55.998C76.5052 55.494 76.3745 55.0717 76.2719 54.731C76.1739 54.3857 76.1132 54.1687 76.0899 54.08L76.0619 53.94C76.0199 54.1733 75.8192 54.8617 75.4599 56.005L75.3969 56.208ZM77.2869 58L76.9509 56.929H75.1659L74.8299 58H73.9059L75.5019 53.282H76.6429L78.2389 58H77.2869ZM82.5987 57.216H84.4397V58H81.7167V53.282H82.5987V57.216ZM93.3256 57.216H95.1666V58H92.4436V53.282H93.3256V57.216ZM98.6902 58V53.282H99.5722V58H98.6902ZM107.295 53.282L105.685 58H104.677L103.095 53.282H104.054L104.635 55.158C104.751 55.5313 104.856 55.8883 104.95 56.229C105.043 56.5697 105.108 56.817 105.146 56.971L105.195 57.202C105.307 56.6793 105.496 55.998 105.762 55.158L106.35 53.282H107.295ZM111.658 57.279H113.583V58H110.769V53.282H113.555V54.003H111.658V55.284H113.345V55.998H111.658V57.279Z" fill="white"/>
</symbol>

<symbol id="big-logo" width="1392" height="1353" viewBox="0 0 1392 1353" fill="none" xmlns="http://www.w3.org/2000/svg">
<path d="M695.9 1020.63C974.41 1020.63 1200.19 792.378 1200.19 510.815C1200.19 229.252 974.41 1 695.9 1C417.39 1 191.613 229.252 191.613 510.815C191.613 792.378 417.39 1020.63 695.9 1020.63Z" stroke="white" stroke-width="2" stroke-miterlimit="10"/>
<path d="M886.404 1351.77C1164.91 1351.77 1390.69 1123.52 1390.69 841.956C1390.69 560.393 1164.91 332.141 886.404 332.141C607.894 332.141 382.117 560.393 382.117 841.956C382.117 1123.52 607.894 1351.77 886.404 1351.77Z" stroke="white" stroke-width="2" stroke-miterlimit="10"/>
<path d="M505.286 1351.77C783.796 1351.77 1009.57 1123.52 1009.57 841.956C1009.57 560.393 783.796 332.141 505.286 332.141C226.777 332.141 1 560.393 1 841.956C1 1123.52 226.777 1351.77 505.286 1351.77Z" stroke="white" stroke-width="2" stroke-miterlimit="10"/>
</symbol>

<symbol id="earth" width="30" height="30" viewBox="0 0 30 30" fill="none" xmlns="http://www.w3.org/2000/svg" xmlns:xlink="http://www.w3.org/1999/xlink">
<rect width="30" height="30" rx="15" fill="#EBEBEB"/>
<rect width="30" height="30" rx="15" fill="url(#pattern0)"/>
<defs>
<pattern id="pattern0" patternContentUnits="objectBoundingBox" width="1" height="1">
<use xlink:href="#image0_801_1528" transform="translate(0.0726103 0.0588235) scale(0.00172335)"/>
</pattern>
</defs>
</symbol>

<symbol id="list-line" width="24" height="1" viewBox="0 0 24 1" fill="none" xmlns="http://www.w3.org/2000/svg">
<rect width="24" height="1" fill="#EBEBEB"/>
</symbol>





</svg>